<svg xmlns="http://www.w3.org/2000/svg" width="22" height="22" viewBox="0 0 22 22">
    <path fill="#FFFFFF80" fill-rule="evenodd" d="M9.814 15.735c-3.207 0-5.817-2.63-5.817-5.861 0-3.233 2.61-5.862 5.817-5.862 3.207 0 5.818 2.63 5.818 5.862s-2.61 5.86-5.818 5.86m9.841 2.54l-3.66-3.704c.98-1.31 1.571-2.932 1.571-4.696 0-4.308-3.478-7.812-7.752-7.812-4.274 0-7.752 3.504-7.752 7.812 0 4.307 3.478 7.81 7.752 7.81 1.829 0 3.507-.644 4.834-1.714l3.637 3.68c.182.186.426.288.685.288.257 0 .5-.1.683-.284.182-.184.284-.43.285-.69 0-.26-.1-.505-.283-.69"/>
</svg>
